# xmcd CD database file
#
# Track frame offsets:
#	150
#	12908
#	26033
#	41130
#	54309
#	69123
#	81468
#	94518
#	108393
#	123141
#	136367
#	148873
#	161504
#	175101
#	186415
#	197278
#	208478
#	221663
#	234181
#	246869
#	261530
#	277002
#	290727
#	305840
#	316761
#	330836
#	341873
#
# Disc length: 4757 seconds
#
# Revision: 0
# Processed by: cddbd v1.5.2PL0 Copyright (c) Steve Scherf et al.
# Submitted via: CDex 1.79
#
DISCID=9912931b
DTITLE=Stan Getz - Autumn Leaves
DYEAR=2008
DGENRE=Jazz
TTITLE0=Indian Summer
TTITLE1=There's A Small Hotel
TTITLE2=What's New?
TTITLE3=Too Marvellous For Words
TTITLE4=I've Got You Under My Skin
TTITLE5=My Old Flame
TTITLE6=You Stepped Out Of A Dream
TTITLE7=Wrap Your Troubles In Dreams
TTITLE8=The Lady In Red
TTITLE9=Gone With The Wind
TTITLE10=On The Alamo
TTITLE11=Yesterdays
TTITLE12=You Go To My Head
TTITLE13=Strike Up The Band
TTITLE14=Imagination
TTITLE15=Out Of Nowhere
TTITLE16='s Wonderful
TTITLE17=It Might As Well Be Spring
TTITLE18=The Song Is You
TTITLE19=Moonlight In Vermont
TTITLE20=Tenderly
TTITLE21=The Way You Look Tonight
TTITLE22=Stars Fell On Alabama
TTITLE23=Lullaby Of Birdland
TTITLE24=Autumn Leaves
TTITLE25=Fools Rush In
TTITLE26=These Foolish Things
EXTD=YEAR: 2008
EXTT0=
EXTT1=
EXTT2=
EXTT3=
EXTT4=
EXTT5=
EXTT6=
EXTT7=
EXTT8=
EXTT9=
EXTT10=
EXTT11=
EXTT12=
EXTT13=
EXTT14=
EXTT15=
EXTT16=
EXTT17=
EXTT18=
EXTT19=
EXTT20=
EXTT21=
EXTT22=
EXTT23=
EXTT24=
EXTT25=
EXTT26=
PLAYORDER=
